<?xml version="1.0" standalone="no"?>
<!DOCTYPE svg PUBLIC "-//W3C//DTD SVG 20010904//EN"
 "http://www.w3.org/TR/2001/REC-SVG-20010904/DTD/svg10.dtd">
<svg version="1.0" xmlns="http://www.w3.org/2000/svg"
 width="295.000000pt" height="295.000000pt" viewBox="0 0 295.000000 295.000000"
 preserveAspectRatio="xMidYMid meet">
<metadata>
Created by potrace 1.11, written by Peter Selinger 2001-2013
</metadata>
<g transform="translate(0.000000,295.000000) scale(0.100000,-0.100000)"
fill="#000000" stroke="none">
<path d="M1260 2504 c-24 -7 -48 -11 -52 -8 -5 3 -21 1 -36 -5 -15 -6 -42 -13
-61 -15 -34 -4 -54 -22 -44 -40 4 -5 -1 -7 -10 -3 -14 5 -16 2 -11 -21 4 -15
11 -31 15 -36 5 -6 9 -19 9 -30 0 -12 7 -41 16 -66 27 -82 24 -76 35 -60 8 12
10 9 5 -9 -3 -13 0 -33 6 -44 5 -11 6 -17 1 -14 -12 8 31 -123 43 -131 6 -4
10 -16 11 -27 1 -42 23 -126 32 -121 4 3 8 -4 9 -15 1 -10 2 -27 3 -36 3 -28
22 -42 36 -28 8 8 9 45 6 114 -3 56 -9 97 -13 92 -3 -6 -7 12 -7 41 -1 95 -5
150 -12 140 -3 -5 -7 22 -8 62 -2 42 1 66 6 57 7 -11 9 -11 14 0 2 8 3 -6 0
-31 -3 -30 -1 -40 5 -32 6 10 9 1 9 -28 0 -23 5 -46 11 -52 6 -6 8 -17 4 -26
-4 -11 -1 -14 12 -9 13 5 15 3 8 -10 -6 -9 -6 -28 -2 -42 52 -165 64 -200 71
-196 4 3 5 -3 3 -12 -6 -21 21 -62 32 -50 7 7 7 59 0 167 -2 30 -7 105 -11
165 -3 61 -8 121 -11 135 -4 14 -8 62 -10 107 -2 45 -4 86 -5 90 -3 18 2 33
10 33 13 0 20 -49 42 -310 6 -74 13 -137 16 -140 3 -3 2 51 -2 120 -8 123 -8
320 0 328 13 13 25 -16 25 -59 0 -31 4 -48 10 -44 6 3 10 1 10 -4 0 -6 -4 -11
-10 -11 -13 0 -13 -46 1 -72 8 -15 8 -19 0 -14 -12 8 -14 -53 -2 -94 5 -18 9
-3 14 54 11 120 8 200 -5 215 -10 11 -10 13 0 7 6 -4 12 -2 12 3 0 6 8 11 18
11 15 0 17 -11 17 -84 0 -46 -3 -82 -7 -79 -5 2 -7 -37 -7 -86 1 -50 5 -91 8
-91 4 0 14 77 23 170 14 158 20 191 32 179 10 -10 3 -241 -7 -257 -5 -7 -7
-25 -6 -40 1 -15 -1 -43 -4 -62 -3 -19 -8 -70 -11 -113 -5 -61 -3 -76 7 -71 9
6 9 5 0 -7 -17 -20 -27 -92 -18 -126 l7 -28 14 34 c8 18 11 38 7 44 -4 6 -1 7
6 3 7 -5 10 -15 7 -23 -3 -8 -1 -11 5 -8 5 4 7 15 4 26 -4 11 -2 19 5 19 6 0
9 4 5 9 -3 5 -1 12 4 16 6 3 8 12 4 20 -3 8 0 15 7 15 7 0 10 7 6 15 -3 8 -2
15 3 15 7 0 15 26 25 80 1 3 5 10 9 17 4 6 4 18 1 27 -3 9 -2 16 3 16 6 0 15
26 22 58 13 59 23 101 26 115 2 4 3 12 4 18 0 5 6 7 11 4 6 -4 8 -10 5 -15 -3
-5 3 -14 12 -20 17 -11 17 -11 1 -6 -20 6 -23 -5 -32 -89 -3 -27 -12 -111 -20
-185 -21 -185 -21 -216 2 -222 15 -4 21 4 31 38 7 24 10 48 5 55 -5 8 -3 9 6
4 10 -6 12 -3 8 13 -4 12 -2 22 2 22 9 0 22 31 25 60 1 8 7 28 14 43 6 16 8
33 5 39 -5 7 -2 8 6 3 9 -6 10 -2 5 15 -5 15 -4 20 4 16 6 -4 11 -3 11 3 0 5
3 18 6 28 5 15 4 16 -6 3 -10 -13 -11 -13 -7 0 2 8 0 25 -4 38 -6 15 -5 21 1
17 6 -3 10 -14 11 -23 0 -9 7 -2 15 17 9 19 13 44 10 57 -6 22 8 43 17 27 2
-5 2 -2 0 6 -2 8 1 17 6 20 5 3 11 17 12 31 2 14 8 28 13 32 6 4 4 14 -5 24
-9 12 -10 15 -1 10 8 -5 17 3 26 25 21 50 29 16 11 -46 -9 -31 -13 -60 -10
-64 3 -5 0 -11 -5 -13 -6 -2 -12 -14 -14 -28 -1 -14 -6 -32 -9 -40 -25 -57
-35 -100 -25 -106 6 -4 8 -3 4 4 -3 5 -1 12 5 14 6 2 11 16 12 31 0 15 4 27 9
27 5 0 6 5 3 10 -3 6 -1 10 5 10 6 0 9 4 5 9 -3 5 0 13 6 16 5 4 8 13 5 21 -3
8 -1 14 4 14 5 0 7 14 5 30 -3 22 0 30 11 30 16 0 34 38 27 56 -6 17 27 26 43
13 17 -14 18 -30 2 -27 -6 2 -18 -19 -26 -47 -8 -27 -18 -51 -23 -53 -5 -2 -9
-8 -9 -13 0 -6 5 -7 10 -4 6 3 10 1 10 -4 0 -6 -7 -11 -15 -11 -8 0 -15 -4
-15 -10 0 -5 4 -10 9 -10 14 0 33 28 26 40 -3 5 -2 10 3 10 14 0 35 57 28 75
-3 9 -2 13 4 10 6 -3 13 1 16 9 3 9 15 16 25 16 19 0 19 -1 2 -32 -9 -18 -16
-37 -15 -42 2 -4 -9 -28 -23 -52 -14 -24 -23 -49 -20 -54 3 -6 2 -10 -3 -10
-8 0 -32 -42 -32 -56 0 -10 25 2 25 12 1 5 6 19 13 32 7 12 10 22 7 22 -3 0 4
9 15 20 11 11 20 32 20 46 0 14 4 23 10 19 6 -3 10 0 10 8 0 8 10 27 22 42 22
29 16 59 -13 61 -19 1 -79 27 -79 34 0 3 -12 7 -27 8 -15 1 -30 8 -35 15 -4 6
-8 9 -8 5 0 -4 -11 -3 -24 2 -17 6 -26 5 -30 -3 -2 -7 -5 -4 -5 7 -1 14 -6 17
-23 13 -11 -3 -34 1 -50 9 -17 9 -36 13 -44 10 -7 -3 -35 1 -61 9 -63 18 -351
17 -413 -1z m370 -24 c0 -5 -2 -10 -4 -10 -3 0 -8 5 -11 10 -3 6 -1 10 4 10 6
0 11 -4 11 -10z m-210 -20 c0 -11 -2 -20 -4 -20 -2 0 -6 9 -9 20 -3 11 -1 20
4 20 5 0 9 -9 9 -20z m465 -50 c3 -5 1 -10 -4 -10 -6 0 -11 5 -11 10 0 6 2 10
4 10 3 0 8 -4 11 -10z m-538 -42 c-3 -8 -6 -5 -6 6 -1 11 2 17 5 13 3 -3 4
-12 1 -19z m503 -47 c0 -6 -4 -13 -10 -16 -5 -3 -10 1 -10 9 0 9 5 16 10 16 6
0 10 -4 10 -9z m-723 -26 c-4 -8 -2 -17 3 -20 6 -4 10 -11 10 -18 0 -6 -7 -1
-16 11 -8 12 -12 27 -9 32 9 15 18 12 12 -5z m238 -35 c3 -5 1 -10 -4 -10 -6
0 -11 5 -11 10 0 6 2 10 4 10 3 0 8 -4 11 -10z m372 -22 c-3 -8 -6 -5 -6 6 -1
11 2 17 5 13 3 -3 4 -12 1 -19z m-527 -8 c0 -11 -4 -20 -10 -20 -5 0 -10 9
-10 20 0 11 5 20 10 20 6 0 10 -9 10 -20z m470 -24 c0 -6 -7 -1 -15 10 -8 10
-15 23 -15 28 0 6 7 1 15 -10 8 -10 15 -23 15 -28z m150 5 c0 -6 -4 -13 -10
-16 -5 -3 -10 1 -10 9 0 9 5 16 10 16 6 0 10 -4 10 -9z m-233 -53 c-3 -8 -6
-5 -6 6 -1 11 2 17 5 13 3 -3 4 -12 1 -19z m46 -28 c-7 -27 -13 -25 -11 4 1
14 5 23 9 20 4 -2 5 -13 2 -24z m-413 10 c0 -5 -4 -10 -10 -10 -5 0 -10 5 -10
10 0 6 5 10 10 10 6 0 10 -4 10 -10z m-33 -92 c-3 -8 -6 -5 -6 6 -1 11 2 17 5
13 3 -3 4 -12 1 -19z m153 -53 c0 -5 -5 -3 -10 5 -5 8 -10 20 -10 25 0 6 5 3
10 -5 5 -8 10 -19 10 -25z m347 -17 c-3 -7 -5 -2 -5 12 0 14 2 19 5 13 2 -7 2
-19 0 -25z m-490 0 c2 -17 0 -19 -7 -8 -5 8 -6 18 -4 22 8 12 10 10 11 -14z
m517 -52 c-3 -9 -11 -16 -16 -16 -7 0 -6 5 1 14 6 7 9 22 5 32 -5 17 -4 17 5
2 6 -9 8 -23 5 -32z m-477 -8 c-3 -7 -5 -2 -5 12 0 14 2 19 5 13 2 -7 2 -19 0
-25z m121 7 c-3 -3 -9 2 -12 12 -6 14 -5 15 5 6 7 -7 10 -15 7 -18z"/>
<path d="M1020 2450 c0 -5 -13 -10 -30 -10 -21 0 -30 -5 -30 -16 0 -11 -6 -14
-21 -9 -18 6 -19 5 -7 -14 7 -12 16 -21 20 -21 5 0 8 -4 8 -10 0 -5 -7 -7 -14
-4 -13 5 -13 2 -3 -19 6 -14 15 -23 20 -20 5 3 8 -1 6 -8 -4 -31 2 -49 16 -49
8 0 15 5 15 11 0 5 -4 7 -10 4 -6 -3 -7 1 -4 10 4 8 0 25 -7 38 -18 28 -18 79
-1 84 7 3 10 -1 6 -11 -3 -9 -2 -16 3 -16 5 0 10 -10 10 -22 1 -13 7 -24 12
-26 5 -2 7 -11 4 -19 -5 -13 -2 -15 12 -10 16 7 16 5 4 -10 -12 -14 -12 -16 0
-8 11 6 13 4 8 -9 -4 -10 -1 -27 5 -39 7 -12 11 -25 10 -29 -1 -5 3 -8 8 -8 6
0 10 -8 10 -17 0 -10 12 -47 25 -83 30 -77 27 -47 -6 65 -13 44 -31 86 -39 93
-8 8 -9 11 -2 7 13 -7 17 7 5 19 -5 4 -8 11 -9 14 -3 29 -18 62 -28 62 -7 0
-6 4 3 9 8 5 9 11 3 15 -16 9 -3 43 21 54 l22 11 -22 0 c-13 1 -23 -3 -23 -9z"/>
<path d="M864 2389 c-2 -4 1 -11 7 -14 5 -4 8 -14 5 -22 -4 -8 -1 -11 5 -8 6
4 9 1 8 -6 -4 -20 11 -59 22 -59 5 0 8 -3 7 -7 -4 -17 14 -53 24 -47 6 4 8 2
4 -4 -3 -6 3 -29 15 -51 20 -40 39 -61 39 -44 0 17 -53 132 -59 128 -7 -3 -30
68 -29 89 0 5 -6 13 -14 17 -11 7 -10 11 2 18 8 5 18 7 22 5 4 -3 8 -1 8 5 0
11 -58 12 -66 0z"/>
<path d="M820 2365 c0 -9 -6 -12 -17 -8 -10 4 -14 2 -9 -5 4 -7 -7 -15 -28
-20 -33 -10 -158 -88 -164 -104 -2 -4 -11 -8 -19 -8 -13 0 -13 -2 -2 -16 12
-15 11 -16 -9 -10 -17 6 -22 3 -22 -9 0 -9 -4 -13 -10 -10 -9 6 -14 -8 -11
-28 1 -5 -3 -6 -9 -2 -6 3 -7 12 -4 18 4 7 -2 3 -13 -8 -11 -11 -18 -26 -15
-34 4 -9 1 -12 -7 -7 -7 5 -10 2 -9 -5 2 -7 -3 -13 -10 -14 -17 0 -72 -54 -72
-69 0 -6 7 -2 15 8 8 11 15 14 15 8 0 -7 5 -12 10 -12 6 0 23 -12 38 -27 16
-16 44 -41 63 -58 19 -16 64 -56 102 -89 37 -32 67 -55 67 -51 0 15 -177 181
-188 177 -7 -2 -10 3 -6 12 4 11 1 16 -11 16 -9 0 -14 4 -11 9 3 5 -2 15 -12
22 -15 13 -16 12 -3 -3 9 -12 10 -18 2 -18 -6 0 -16 10 -20 23 -7 16 -5 25 7
35 18 14 37 11 37 -6 0 -11 129 -142 140 -142 3 0 17 -12 31 -27 l26 -28 -21
29 c-11 15 -45 56 -75 90 -88 97 -96 108 -96 124 0 17 13 8 68 -48 19 -19 39
-34 44 -32 6 2 8 -4 4 -13 -3 -9 -2 -13 4 -10 6 3 10 1 10 -4 0 -14 37 -51 50
-51 6 0 10 -6 10 -12 0 -7 19 -31 42 -53 l41 -40 -44 58 c-24 31 -47 57 -50
57 -4 0 -24 25 -44 56 -22 32 -42 53 -50 50 -9 -3 -11 2 -7 16 4 16 1 20 -9
16 -8 -3 -23 0 -34 8 -10 8 -14 14 -9 14 6 0 15 -5 22 -12 15 -15 16 -3 2 22
-7 13 -5 21 7 31 10 9 14 9 10 2 -4 -6 -1 -15 6 -20 7 -4 16 -16 20 -26 5 -15
10 -16 27 -7 11 6 18 15 15 21 -4 5 -2 9 4 9 5 0 9 -9 8 -19 0 -11 -5 -19 -10
-18 -5 1 -12 -4 -15 -12 -3 -10 0 -12 11 -8 12 4 14 2 10 -11 -6 -15 -5 -16
13 -2 18 14 18 14 5 -2 -12 -16 -9 -23 20 -56 19 -21 44 -50 56 -65 22 -25 51
-39 38 -17 -3 6 -1 10 6 10 7 0 9 -10 7 -24 -3 -14 3 -33 14 -47 11 -13 16
-18 12 -10 -5 9 -3 12 5 7 6 -4 9 -11 6 -16 -3 -4 4 -19 16 -31 11 -13 18 -19
15 -13 -3 6 1 11 8 11 8 0 12 -7 9 -16 -3 -11 0 -10 11 3 18 23 21 14 5 -12
-9 -15 -6 -24 18 -50 24 -26 31 -30 43 -20 12 11 12 10 1 -4 -15 -20 -5 -42
15 -34 8 3 11 0 8 -8 -7 -18 24 -42 37 -29 12 12 1 45 -13 37 -5 -3 -8 0 -7 7
5 23 -12 60 -23 53 -7 -4 -8 -2 -4 4 7 12 -21 74 -37 80 -4 2 -5 8 -1 13 3 5
0 9 -7 9 -7 0 -9 3 -6 7 4 3 0 15 -10 25 -9 10 -13 18 -9 18 3 0 -1 14 -10 31
-11 22 -18 28 -24 20 -5 -9 -9 -8 -13 4 -4 9 -3 13 3 10 15 -9 12 12 -5 28 -8
8 -12 16 -10 18 2 3 -5 15 -15 29 -12 16 -20 20 -20 11 0 -11 -4 -9 -15 5 -8
10 -15 23 -15 28 0 6 7 1 15 -10 17 -23 20 -5 4 30 -7 14 -16 23 -21 20 -4 -3
-5 -11 -2 -17 4 -7 3 -8 -1 -4 -5 4 -10 14 -11 21 -2 17 28 14 34 -2 2 -7 9
-9 14 -6 7 4 8 2 4 -4 -4 -7 -3 -12 3 -12 5 0 12 6 15 13 3 6 3 2 0 -11 -6
-26 12 -55 29 -45 5 3 7 1 4 -5 -9 -14 3 -43 14 -36 5 3 9 0 9 -7 0 -7 7 -21
16 -30 13 -14 21 -16 38 -8 20 10 20 9 2 -5 -18 -14 -17 -16 14 -56 33 -42 45
-48 54 -27 3 6 3 2 0 -11 -5 -22 1 -33 77 -119 35 -41 63 -36 47 8 -5 16 -13
27 -17 25 -4 -3 -13 4 -20 16 -7 11 -8 17 -2 13 6 -3 11 -1 11 5 0 8 -9 10
-25 6 -20 -5 -23 -3 -18 11 5 12 3 14 -8 9 -8 -4 -5 0 6 8 19 16 19 17 -14 84
-18 37 -40 78 -49 92 -9 14 -17 29 -17 34 0 20 -26 16 -33 -5 l-9 -23 -5 22
c-4 12 -3 20 2 17 12 -7 33 22 25 35 -4 6 -14 9 -22 5 -13 -4 -14 -3 -4 9 14
17 4 44 -33 85 -11 13 -15 21 -8 17 7 -5 2 15 -13 43 -23 47 -27 51 -48 41
-20 -10 -20 -10 -4 3 9 8 17 19 17 26 0 6 8 11 18 11 14 0 15 2 2 10 -22 14
-40 12 -40 -5z m44 -81 c3 -8 2 -12 -4 -9 -6 3 -10 10 -10 16 0 14 7 11 14 -7z
m59 -119 c4 -8 3 -16 -1 -19 -4 -3 -9 4 -9 15 -2 23 3 25 10 4z m-193 -105 c0
-5 -4 -10 -10 -10 -5 0 -10 5 -10 10 0 6 5 10 10 10 6 0 10 -4 10 -10z m168
-3 c9 -10 6 -13 -13 -13 -19 0 -22 3 -13 13 6 7 12 13 13 13 1 0 7 -6 13 -13z
m-187 -29 c11 -21 11 -22 -4 -9 -10 7 -17 17 -17 22 0 15 9 10 21 -13z m-160
-5 c13 -16 12 -17 -3 -4 -10 7 -18 15 -18 17 0 8 8 3 21 -13z m197 -41 c2 -7
-1 -12 -8 -12 -6 0 -9 4 -6 9 4 5 1 12 -4 14 -6 3 -5 4 2 3 6 -1 14 -8 16 -14z
m132 -46 c0 -2 -8 -10 -17 -17 -16 -13 -17 -12 -4 4 13 16 21 21 21 13z m101
-23 c-12 -20 -14 -14 -5 12 4 9 9 14 11 11 3 -2 0 -13 -6 -23z m70 -20 c13
-16 12 -17 -3 -4 -17 13 -22 21 -14 21 2 0 10 -8 17 -17z m-30 -26 c-10 -9
-11 -8 -5 6 3 10 9 15 12 12 3 -3 0 -11 -7 -18z m-11 -193 c0 -8 -19 -13 -24
-6 -3 5 1 9 9 9 8 0 15 -2 15 -3z"/>
<path d="M2103 2358 c0 -27 -5 -51 -14 -58 -16 -13 -168 -334 -162 -343 3 -5
1 -7 -5 -3 -14 9 -46 -77 -37 -103 4 -13 2 -21 -5 -21 -6 0 -9 4 -5 9 3 5 1
12 -3 15 -5 3 -16 -10 -25 -28 -14 -30 -14 -36 0 -55 l15 -22 19 25 c10 13 19
30 19 37 0 7 3 10 6 6 3 -3 35 31 70 76 35 45 68 87 73 93 6 7 5 16 -2 24 -9
10 -9 11 1 6 20 -11 69 50 67 83 -1 21 2 28 12 24 8 -3 10 -10 6 -17 -5 -7 3
1 17 16 25 28 53 41 31 15 -6 -8 -7 -18 -3 -22 4 -5 2 -5 -4 -2 -7 4 -15 0
-18 -9 -3 -8 -2 -12 3 -9 5 3 13 1 16 -5 4 -6 3 -10 -2 -9 -18 4 -41 -13 -36
-28 3 -9 -7 -26 -26 -43 -30 -28 -44 -59 -19 -44 7 4 8 3 4 -5 -4 -6 -12 -9
-17 -6 -8 6 -11 -2 -8 -21 0 -4 -3 -10 -8 -13 -19 -12 -74 -121 -67 -132 4 -8
9 -7 16 2 6 10 7 7 3 -9 -8 -29 20 -41 43 -18 14 13 14 20 5 36 -9 14 -10 21
-1 26 6 4 8 3 4 -4 -10 -16 13 -25 29 -12 16 13 21 35 6 26 -5 -4 -7 4 -3 16
5 20 6 20 12 4 5 -16 10 -13 33 17 15 19 34 43 43 51 9 9 13 23 10 31 -3 8 -2
14 2 14 21 -4 33 4 45 29 8 15 12 33 10 40 -3 6 0 12 5 12 6 0 12 -5 14 -12 3
-7 13 0 24 16 10 15 33 45 51 65 26 30 30 40 20 51 -10 10 -7 10 13 0 14 -7
28 -18 32 -24 5 -7 8 -7 8 2 0 7 5 10 11 6 6 -3 -4 -15 -24 -28 -45 -27 -91
-82 -83 -101 3 -8 0 -17 -6 -21 -7 -4 -8 -3 -4 4 12 20 -10 13 -29 -8 -10 -11
-15 -20 -11 -20 4 0 1 -6 -6 -14 -23 -23 -62 -70 -102 -121 -30 -39 -31 -43
-6 -15 229 249 290 311 290 297 0 -6 3 -7 7 -4 9 9 -37 57 -54 57 -7 0 -13 5
-13 11 0 6 -7 8 -16 5 -8 -3 -12 -2 -9 4 3 6 1 10 -4 10 -6 0 -11 7 -11 15 0
8 -9 15 -21 15 -13 0 -18 4 -13 12 5 8 2 9 -9 5 -11 -4 -17 -1 -17 8 0 8 -5
15 -11 15 -6 0 -30 13 -53 30 -24 16 -46 26 -50 23 -3 -4 -12 2 -20 12 -7 10
-18 15 -25 11 -7 -4 -10 -2 -9 5 2 6 -2 13 -8 16 -7 2 -12 -6 -11 -19z m22
-38 c3 -5 1 -10 -4 -10 -6 0 -11 5 -11 10 0 6 2 10 4 10 3 0 8 -4 11 -10z
m-22 -43 c3 -8 -1 -14 -8 -14 -7 0 -11 6 -8 14 3 7 6 13 8 13 2 0 5 -6 8 -13z
m-15 -73 c-3 -14 -5 -12 -10 9 -3 19 -2 25 4 19 6 -6 8 -18 6 -28z m62 -60 c0
-8 -19 -13 -24 -6 -3 5 1 9 9 9 8 0 15 -2 15 -3z m154 -9 c-5 -11 -2 -13 10
-9 12 5 15 2 10 -10 -3 -9 -9 -16 -13 -16 -10 0 -30 37 -24 44 12 12 22 6 17
-9z m-254 -15 c0 -5 -4 -10 -10 -10 -5 0 -10 5 -10 10 0 6 5 10 10 10 6 0 10
-4 10 -10z m-34 -23 c0 -13 -6 -24 -13 -24 -14 0 -13 15 2 34 13 16 13 16 11
-10z m381 -1 c-8 -8 -17 -12 -21 -9 -3 3 2 12 12 19 22 16 29 9 9 -10z m-317
-42 c-6 -6 -7 -14 -3 -17 3 -4 1 -7 -5 -7 -7 0 -12 5 -12 11 0 5 -4 7 -10 4
-5 -3 -7 0 -4 9 3 8 14 14 24 13 13 -1 16 -5 10 -13z m86 -18 c0 -13 -5 -22
-10 -18 -5 3 -6 -3 -2 -14 5 -14 4 -16 -4 -8 -8 8 -8 18 1 37 15 33 17 34 15
3z m-139 -46 c-2 -23 -17 -27 -17 -4 0 9 -5 12 -12 8 -7 -4 -8 -3 -4 4 12 19
35 14 33 -8z m147 -25 c-7 -16 -24 -21 -24 -6 0 8 7 13 27 20 1 1 0 -6 -3 -14z
m-234 -29 c0 -2 -8 -10 -17 -17 -16 -13 -17 -12 -4 4 13 16 21 21 21 13z m28
-18 c10 -12 10 -18 1 -24 -7 -4 -9 -3 -5 4 3 6 2 13 -4 17 -5 3 -10 11 -10 17
0 6 1 9 3 7 1 -2 8 -11 15 -21z m169 -7 c0 -11 -5 -18 -9 -15 -4 3 -5 11 -1
19 7 21 12 19 10 -4z m-207 -41 c0 -11 -4 -20 -9 -20 -5 0 -7 9 -4 20 3 11 7
20 9 20 2 0 4 -9 4 -20z m113 -45 c-3 -9 -8 -14 -10 -11 -3 3 -2 9 2 15 9 16
15 13 8 -4z"/>
<path d="M980 2254 c0 -12 73 -145 77 -140 3 2 -1 15 -8 28 -14 25 -16 30 -18
54 0 8 -6 12 -12 8 -8 -4 -9 1 -4 17 5 20 4 21 -5 9 -10 -12 -11 -11 -7 8 3
15 0 22 -9 22 -8 0 -14 -2 -14 -6z"/>
<path d="M1922 2203 c1 -5 -3 -18 -10 -30 -7 -13 -10 -23 -6 -23 3 0 2 -6 -3
-12 -15 -19 -23 -48 -15 -48 4 0 13 12 19 28 7 15 19 42 27 60 13 28 13 32 1
32 -8 0 -14 -3 -13 -7z"/>
<path d="M1471 2164 c0 -11 3 -14 6 -6 3 7 2 16 -1 19 -3 4 -6 -2 -5 -13z"/>
<path d="M1513 2100 c0 -30 2 -43 4 -27 2 15 2 39 0 55 -2 15 -4 2 -4 -28z"/>
<path d="M1473 2070 c0 -36 2 -50 4 -32 2 17 2 47 0 65 -2 17 -4 3 -4 -33z"/>
<path d="M1922 2068 c-29 -69 -22 -71 11 -3 15 30 23 55 19 55 -4 0 -18 -23
-30 -52z"/>
<path d="M2458 2109 c-10 -5 -14 -17 -11 -29 6 -24 21 -26 29 -5 4 8 11 12 18
8 6 -4 4 2 -4 13 -8 10 -15 20 -15 21 0 1 -8 -3 -17 -8z"/>
<path d="M998 2094 c6 -11 18 -28 27 -39 15 -19 15 -18 1 12 -9 17 -21 35 -27
39 -8 4 -8 1 -1 -12z"/>
<path d="M1058 2094 c-7 -6 27 -84 37 -84 2 0 -2 15 -9 33 -7 17 -15 38 -17
45 -3 7 -8 10 -11 6z"/>
<path d="M1834 2085 c-3 -8 -4 -20 -2 -27 3 -7 7 -1 10 15 6 29 1 36 -8 12z"/>
<path d="M2404 1965 c-62 -63 -110 -116 -107 -119 3 -2 17 6 31 19 15 12 48
41 74 63 26 22 44 43 40 48 -4 4 -2 4 4 1 14 -8 38 18 30 31 -3 6 2 16 12 23
15 13 16 12 3 -3 -15 -20 -9 -23 18 -8 24 13 33 36 18 48 -9 8 -43 -21 -123
-103z"/>
<path d="M2390 2035 c-19 -19 -31 -35 -27 -35 4 0 -16 -24 -44 -52 -27 -29
-78 -82 -112 -118 -86 -89 -34 -46 90 75 56 55 100 102 97 106 -2 4 3 10 12
13 10 4 13 2 9 -7 -4 -6 1 -3 9 7 37 46 8 54 -34 11z"/>
<path d="M2116 2033 c-6 -14 -5 -15 5 -6 7 7 10 15 7 18 -3 3 -9 -2 -12 -12z"/>
<path d="M2534 2005 c-9 -19 -23 -35 -31 -35 -8 0 -12 -4 -9 -9 3 -5 -2 -8
-11 -7 -9 0 -18 -5 -21 -13 -3 -9 0 -11 8 -6 9 5 11 4 6 -4 -4 -6 -12 -8 -18
-5 -6 4 -16 1 -22 -7 -6 -8 -23 -22 -38 -32 -16 -10 -28 -24 -28 -33 0 -8 -4
-13 -9 -10 -11 7 -33 -18 -24 -27 3 -4 -3 -7 -14 -7 -11 0 -27 -8 -34 -17 -12
-14 -12 -15 -1 -9 12 7 12 4 1 -15 -7 -13 -12 -28 -11 -32 1 -5 -2 -6 -7 -3
-5 4 -12 2 -15 -3 -3 -5 -15 -7 -26 -4 -18 5 -25 -5 -21 -30 1 -5 -3 -6 -8 -3
-5 4 -14 -2 -20 -11 -5 -10 -13 -15 -16 -11 -4 4 -24 -13 -45 -37 -21 -24 -40
-42 -42 -39 -3 2 -13 -5 -23 -17 -16 -17 -17 -22 -5 -29 16 -10 33 -3 24 11
-3 5 -10 6 -16 3 -7 -4 -8 -2 -4 4 5 8 13 9 24 3 20 -10 45 -3 37 10 -4 5 2 6
11 2 12 -4 15 -3 10 5 -4 7 -2 10 6 7 8 -3 22 2 33 10 19 16 19 16 -5 10 -19
-5 -22 -4 -10 4 8 6 22 8 32 5 9 -3 45 12 80 34 34 21 71 41 82 45 10 4 16 13
13 22 -4 10 -1 12 10 8 9 -4 14 -2 10 3 -3 6 6 10 21 10 16 -1 26 4 25 11 -2
7 3 10 11 7 8 -3 17 0 21 6 3 6 3 9 -2 8 -9 -3 -13 5 -13 25 0 6 5 4 11 -5 5
-10 15 -18 21 -18 7 0 7 4 0 13 -8 9 -4 12 18 12 41 0 48 -13 13 -25 -23 -8
-30 -17 -30 -36 0 -13 4 -24 10 -24 6 0 7 -3 4 -6 -4 -4 -14 -1 -22 6 -13 11
-13 15 -3 21 8 5 8 9 2 9 -6 0 -19 -10 -30 -21 -10 -12 -29 -25 -42 -30 -15
-6 -21 -14 -16 -21 4 -7 4 -10 0 -6 -5 4 -21 -7 -37 -23 -15 -16 -33 -29 -39
-29 -17 0 -11 -18 12 -34 12 -9 18 -16 12 -16 -6 0 -19 7 -30 14 -17 13 -21
13 -37 -7 -10 -12 -15 -15 -11 -7 5 10 0 9 -14 -4 -24 -21 -29 -32 -10 -20 7
4 8 3 4 -4 -4 -7 -13 -12 -19 -12 -18 -1 -59 -38 -53 -49 3 -5 -2 -15 -12 -22
-15 -13 -16 -12 -3 4 16 21 5 23 -15 2 -9 -8 -11 -15 -5 -15 6 0 7 -7 4 -17
-5 -12 -3 -14 8 -7 8 5 16 9 19 10 3 0 22 9 43 19 33 17 36 21 22 31 -10 8
-12 14 -6 19 6 3 11 1 11 -4 0 -14 37 -14 45 0 11 17 -3 23 -20 9 -13 -11 -14
-10 -9 4 8 20 33 21 40 1 4 -8 10 -12 15 -9 5 3 6 10 3 16 -5 7 -1 9 9 5 8 -3
21 1 28 9 6 8 14 12 17 10 2 -3 18 2 34 10 17 9 28 18 25 21 -3 2 -18 -3 -34
-12 l-28 -17 25 21 c14 11 33 18 42 15 19 -6 101 44 93 56 -3 4 2 10 9 13 8 3
17 1 19 -6 3 -8 10 -5 22 8 9 11 14 14 10 8 -3 -7 17 1 44 18 30 19 48 36 44
43 -4 6 -1 6 8 -1 13 -10 19 -9 36 7 12 10 24 16 27 12 13 -12 35 -10 29 4 -3
8 -8 14 -12 14 -3 0 -15 18 -25 40 -14 29 -24 39 -35 35 -12 -5 -13 -3 -4 6 7
7 8 16 2 23 -5 6 -20 27 -32 46 -13 19 -31 34 -40 34 -9 -1 -14 2 -12 7 9 14
-29 66 -44 61 -10 -3 -12 0 -8 12 12 30 -2 16 -19 -19z m56 -45 c0 -5 -4 -10
-10 -10 -5 0 -10 5 -10 10 0 6 5 10 10 10 6 0 10 -4 10 -10z m44 -41 c3 -3 -4
-5 -14 -6 -11 -1 -20 2 -20 7 0 8 25 8 34 -1z m-124 -95 c0 -8 -19 -13 -24 -6
-3 5 1 9 9 9 8 0 15 -2 15 -3z m140 -14 c0 -11 -4 -20 -10 -20 -5 0 -10 9 -10
20 0 11 5 20 10 20 6 0 10 -9 10 -20z m-280 -10 c0 -5 -4 -10 -10 -10 -5 0
-10 5 -10 10 0 6 5 10 10 10 6 0 10 -4 10 -10z m315 0 c3 -5 1 -10 -4 -10 -6
0 -11 5 -11 10 0 6 2 10 4 10 3 0 8 -4 11 -10z m40 -20 c3 -5 2 -10 -4 -10 -5
0 -13 5 -16 10 -3 6 -2 10 4 10 5 0 13 -4 16 -10z m-379 -26 c2 -12 -1 -13
-11 -4 -8 7 -20 9 -27 5 -7 -4 -4 1 6 9 21 17 29 14 32 -10z m344 12 c0 -3 -4
-8 -10 -11 -5 -3 -10 -1 -10 4 0 6 5 11 10 11 6 0 10 -2 10 -4z m-420 -49 c0
-2 -10 -12 -22 -23 l-23 -19 19 23 c18 21 26 27 26 19z m199 -18 c4 -12 2 -12
-12 0 -10 7 -17 9 -17 3 0 -5 -8 -13 -17 -16 -15 -6 -14 -4 2 14 20 22 36 22
44 -1z m-159 -3 c0 -2 -7 -7 -16 -10 -8 -3 -12 -2 -9 4 6 10 25 14 25 6z m-80
-41 c-7 -8 -18 -15 -24 -15 -6 0 -2 7 8 15 25 19 32 19 16 0z m-47 -12 c-7 -2
-19 -2 -25 0 -7 3 -2 5 12 5 14 0 19 -2 13 -5z m175 -25 c-2 -6 -12 -12 -22
-14 -14 -2 -15 0 -5 12 14 17 32 19 27 2z m62 -8 c0 -5 -5 -10 -11 -10 -5 0
-7 5 -4 10 3 6 8 10 11 10 2 0 4 -4 4 -10z m35 0 c-3 -5 -12 -10 -18 -10 -7 0
-6 4 3 10 19 12 23 12 15 0z"/>
<path d="M1040 2025 c0 -5 5 -17 10 -25 5 -8 10 -10 10 -5 0 6 -5 17 -10 25
-5 8 -10 11 -10 5z"/>
<path d="M364 2005 c2 -6 -5 -17 -16 -24 -13 -8 -18 -19 -15 -32 4 -16 3 -18
-8 -9 -9 8 -15 8 -20 0 -3 -5 -3 -10 1 -10 5 0 -9 -18 -30 -39 -31 -31 -37
-43 -31 -62 4 -13 4 -21 0 -17 -4 4 -16 -1 -27 -12 -17 -15 -18 -21 -6 -39 16
-26 44 -23 40 4 -2 11 -1 17 2 14 4 -4 9 -17 11 -30 5 -26 35 -61 35 -41 0 7
5 12 11 12 5 0 8 -4 4 -9 -7 -13 53 -54 70 -48 7 3 16 -1 19 -8 7 -18 84 -58
97 -50 5 4 8 1 7 -7 -2 -8 4 -12 16 -10 10 2 15 -1 12 -6 -3 -6 1 -13 10 -16
9 -4 13 -2 8 5 -4 8 0 7 15 0 11 -7 21 -14 21 -17 0 -3 -5 -2 -12 2 -6 4 -8 3
-4 -4 3 -6 20 -13 36 -17 17 -4 30 -11 30 -16 0 -5 6 -9 14 -9 8 0 16 -5 18
-11 2 -5 10 -11 18 -13 8 -1 26 -8 40 -16 14 -8 27 -15 30 -16 18 -4 46 -19
52 -28 4 -6 10 -3 14 8 10 25 -29 61 -66 61 -17 0 -30 -4 -30 -10 0 -5 -4 -4
-9 4 -5 8 -14 10 -21 6 -8 -5 -11 -4 -7 2 4 6 0 13 -8 17 -8 3 -15 10 -15 16
0 6 7 4 16 -4 8 -9 21 -16 27 -16 7 0 23 -3 37 -6 24 -6 23 -4 -9 25 -18 17
-37 28 -42 25 -5 -3 -8 0 -7 8 2 7 -3 12 -10 10 -8 -1 -11 1 -8 6 3 5 -5 18
-19 30 -23 20 -24 20 -41 1 -19 -21 -34 -25 -34 -9 0 6 6 9 13 8 6 -2 11 3 9
10 -1 8 2 11 8 7 22 -14 8 12 -21 38 -29 25 -42 31 -61 28 -4 0 -5 6 -2 14 4
8 2 15 -4 15 -5 0 -24 13 -43 29 -18 16 -38 27 -43 24 -5 -3 -6 -1 -2 5 3 6
-2 15 -11 21 -10 5 -15 13 -11 16 10 11 40 -3 33 -15 -3 -5 -2 -10 3 -10 5 0
26 -11 46 -25 20 -13 42 -22 50 -19 8 3 17 1 21 -5 4 -7 -1 -9 -12 -5 -15 5
-16 4 -3 -5 8 -6 23 -8 34 -5 11 4 16 2 12 -4 -8 -13 61 -62 86 -62 9 0 24 -7
33 -16 8 -9 22 -13 31 -10 8 3 13 2 10 -3 -6 -9 20 -35 45 -44 13 -4 16 1 13
30 -1 19 -2 33 -1 31 1 -1 13 -16 27 -31 20 -23 21 -27 6 -21 -16 6 -18 4 -13
-10 4 -10 7 -20 7 -22 0 -3 10 1 23 7 19 11 20 10 10 -2 -10 -12 -8 -15 13
-17 13 -1 24 3 24 9 0 5 -4 7 -10 4 -6 -3 -7 1 -4 9 3 9 2 16 -4 16 -5 0 -25
16 -44 35 -24 25 -40 34 -51 29 -15 -5 -15 -9 -5 -23 12 -14 11 -15 -5 -2 -18
14 -18 16 -2 27 16 12 13 34 -5 34 -5 0 -22 12 -37 26 -69 64 -131 114 -143
114 -7 0 -10 3 -7 7 9 9 -33 53 -50 53 -7 0 -13 -6 -13 -12 -1 -7 -8 -1 -16
15 -16 30 -32 35 -40 12 -8 -21 -21 -19 -27 5 -3 11 -12 20 -21 20 -9 0 -16 5
-16 10 0 15 16 12 30 -5 15 -18 36 -19 46 -3 8 12 -56 69 -69 61 -4 -2 -6 1
-5 8 2 7 -9 13 -25 14 -18 1 -26 -2 -23 -10z m26 -125 c0 -5 -4 -10 -10 -10
-5 0 -10 5 -10 10 0 6 5 10 10 10 6 0 10 -4 10 -10z m164 -15 c-4 -8 -1 -15 5
-15 6 0 11 -5 11 -11 0 -8 -4 -9 -13 0 -8 6 -17 7 -22 3 -4 -4 -2 3 4 16 13
25 23 30 15 7z m-64 -63 c-6 -2 -8 -8 -5 -13 4 -5 -1 -6 -9 -3 -8 3 -14 14
-13 24 1 14 4 16 19 6 10 -6 14 -12 8 -14z m-140 -2 c0 -5 -4 -10 -10 -10 -5
0 -10 5 -10 10 0 6 5 10 10 10 6 0 10 -4 10 -10z m337 -50 c4 -12 3 -13 -5 -1
-5 7 -15 10 -21 7 -6 -4 -11 -2 -11 4 0 17 33 8 37 -10z m-342 -10 c-3 -5 -12
-10 -18 -10 -7 0 -6 4 3 10 19 12 23 12 15 0z m155 -24 c0 -3 -4 -8 -10 -11
-5 -3 -10 -1 -10 4 0 6 5 11 10 11 6 0 10 -2 10 -4z m-60 -40 c0 -2 -8 -10
-17 -17 -16 -13 -17 -12 -4 4 13 16 21 21 21 13z m317 -2 c-3 -3 -12 -4 -19
-1 -8 3 -5 6 6 6 11 1 17 -2 13 -5z m-267 -54 c0 -5 -2 -10 -4 -10 -3 0 -8 5
-11 10 -3 6 -1 10 4 10 6 0 11 -4 11 -10z m160 -60 c0 -5 -4 -10 -10 -10 -5 0
-10 5 -10 10 0 6 5 10 10 10 6 0 10 -4 10 -10z m166 -108 c-9 -9 -37 8 -31 18
5 8 11 7 21 -1 8 -6 12 -14 10 -17z"/>
<path d="M511 1913 c7 -12 15 -20 18 -17 3 2 -3 12 -13 22 -17 16 -18 16 -5
-5z"/>
<path d="M750 1810 c12 -16 26 -30 32 -30 5 0 -3 14 -19 30 -15 17 -29 30 -31
30 -2 0 6 -13 18 -30z"/>
<path d="M2268 1829 c-10 -5 -23 -20 -30 -32 -9 -17 -5 -16 20 8 40 38 42 43
10 24z"/>
<path d="M730 1775 c13 -14 26 -25 28 -25 3 0 -5 11 -18 25 -13 14 -26 25 -28
25 -3 0 5 -11 18 -25z"/>
<path d="M1826 1766 c5 -13 4 -17 -4 -12 -7 4 -12 3 -12 -2 0 -15 28 -23 36
-11 3 6 -1 18 -10 27 -16 16 -17 16 -10 -2z"/>
<path d="M1974 1767 c-3 -9 -3 -20 0 -26 4 -5 -2 -14 -11 -20 -10 -6 -14 -11
-10 -11 5 0 1 -7 -8 -16 -22 -23 -2 -49 25 -32 10 7 16 16 14 20 -3 5 -10 5
-16 2 -6 -4 -6 2 1 15 13 24 23 28 15 6 -9 -23 9 -17 28 9 16 23 16 24 -7 46
-21 20 -25 21 -31 7z"/>
<path d="M2250 1755 c-20 -24 -6 -28 15 -5 10 11 13 20 8 20 -6 0 -16 -7 -23
-15z"/>
<path d="M171 1727 c-18 -42 -17 -38 -25 -69 -5 -16 -11 -28 -15 -28 -4 0 -8
-10 -8 -22 -1 -13 -7 -24 -13 -26 -11 -4 -14 -32 -4 -32 4 0 13 8 20 18 9 11
16 13 21 6 16 -23 83 -26 83 -4 0 7 -54 25 -56 18 0 -2 -8 3 -17 11 -23 19
-12 31 28 29 19 -1 32 -5 30 -9 -3 -4 9 -12 25 -18 17 -5 30 -8 30 -5 0 3 7
-2 16 -10 18 -18 30 -20 39 -6 3 5 -6 12 -20 16 -14 3 -25 11 -25 17 0 6 -3 7
-6 4 -4 -4 -20 3 -35 14 -19 13 -37 18 -51 14 -18 -5 -19 -4 -8 4 12 9 12 11
-3 17 -13 5 -15 10 -7 19 10 12 57 -7 173 -66 10 -6 22 -7 27 -4 6 4 10 2 10
-4 0 -12 52 -41 72 -41 15 0 -1 17 -21 22 -8 2 -22 9 -30 16 -9 7 -20 13 -26
13 -5 1 -21 9 -35 19 -14 9 -31 15 -38 13 -7 -3 -11 0 -10 5 2 6 -1 10 -5 11
-4 0 -15 7 -24 16 -8 9 -22 14 -30 11 -9 -4 -11 -2 -7 6 5 7 2 9 -9 5 -12 -4
-14 -2 -10 10 5 12 3 14 -8 8 -12 -8 -12 -6 0 8 8 10 11 20 7 24 -3 3 -6 0 -6
-8 0 -10 -2 -11 -8 -2 -5 8 -12 2 -21 -20z m34 -157 c3 -5 1 -10 -4 -10 -6 0
-11 5 -11 10 0 6 2 10 4 10 3 0 8 -4 11 -10z"/>
<path d="M2179 1743 c-13 -16 -12 -17 4 -4 9 7 17 15 17 17 0 8 -8 3 -21 -13z"/>
<path d="M2736 1704 c-9 -8 -20 -12 -26 -9 -5 3 -10 0 -10 -8 0 -8 -8 -21 -17
-28 -16 -13 -17 -12 -4 4 8 9 11 20 7 24 -3 3 -6 1 -6 -5 0 -7 -7 -12 -16 -12
-9 0 -14 -6 -11 -13 3 -8 -1 -14 -9 -14 -7 0 -11 4 -8 9 3 4 -6 3 -20 -4 -14
-6 -26 -14 -26 -18 0 -3 -16 -12 -35 -19 -19 -7 -35 -17 -35 -22 0 -5 -6 -9
-14 -9 -8 0 -24 -9 -37 -21 l-24 -20 25 13 c14 7 27 13 30 13 15 1 70 28 70
35 0 3 6 7 13 7 20 0 137 55 133 62 -2 3 11 7 30 8 26 2 32 0 28 -12 -4 -8
-13 -15 -21 -15 -10 0 -13 -6 -9 -16 6 -15 4 -15 -11 -3 -14 12 -16 12 -9 0 6
-9 5 -12 -5 -9 -14 5 -70 -18 -79 -33 -3 -5 -16 -10 -29 -12 -12 -2 -26 -9
-31 -17 -4 -7 -12 -10 -17 -7 -10 6 -78 -31 -71 -39 5 -4 36 7 116 43 43 19
39 17 75 27 15 5 27 12 27 18 0 5 4 7 10 3 5 -3 18 3 30 15 11 11 20 16 20 10
0 -5 5 -9 11 -7 21 4 20 -21 -1 -28 -11 -3 -18 -10 -16 -14 3 -4 -4 -8 -15 -9
-43 -4 -49 -6 -49 -14 0 -5 -4 -7 -9 -4 -5 3 -14 -1 -21 -9 -7 -8 -22 -15 -35
-15 -12 0 -22 -6 -22 -14 0 -16 31 -10 66 13 14 9 36 17 50 18 15 2 41 6 59 9
37 7 45 -11 8 -20 -19 -5 -24 -11 -21 -27 5 -26 1 -22 55 -53 76 -43 32 -29
-54 18 l-81 44 -110 -79 c-60 -43 -117 -78 -125 -78 -8 0 -47 12 -86 28 l-70
27 -189 -122 c-105 -67 -194 -120 -200 -116 -5 3 -33 23 -61 44 -37 27 -69 41
-122 53 -60 12 -84 24 -159 79 l-87 64 -116 -78 c-63 -42 -149 -96 -190 -120
-41 -23 -89 -51 -106 -62 l-32 -18 -138 106 c-75 59 -166 138 -201 175 l-63
67 -50 -24 c-66 -32 -82 -30 -170 12 l-74 35 -45 -19 c-25 -11 -73 -32 -106
-46 -33 -15 -52 -20 -42 -12 14 11 15 15 5 20 -7 3 -3 3 10 0 23 -6 28 13 7
28 -5 4 0 6 12 5 18 -1 20 -4 10 -16 -10 -12 -9 -13 11 -2 13 7 20 17 16 23
-5 7 -1 9 9 5 24 -9 21 0 -4 14 -17 9 -20 8 -14 -3 3 -7 0 -5 -9 6 -20 24 -99
32 -116 11 -10 -12 -10 -15 1 -15 9 0 10 -3 3 -8 -18 -11 -32 -44 -35 -82 -2
-19 -7 -38 -11 -41 -18 -12 -38 -181 -38 -314 0 -124 11 -250 24 -262 2 -3 53
4 113 14 76 12 160 17 283 17 204 0 345 -21 700 -104 635 -149 803 -173 1053
-151 243 21 440 72 606 154 117 59 128 70 137 153 24 211 -14 563 -61 564 -5
0 -3 5 5 11 11 8 12 12 3 16 -7 2 -13 17 -13 33 0 16 -3 30 -7 32 -16 6 -42
69 -37 86 5 14 4 15 -5 2 -9 -12 -11 -11 -11 8 0 12 1 23 2 25 1 1 -4 12 -10
24 -8 15 -18 20 -29 16 -11 -4 -14 -3 -9 5 10 17 0 15 -18 -4z m69 -114 c-3
-5 -1 -10 6 -10 7 0 10 -2 7 -5 -3 -3 -13 -2 -22 1 -14 5 -15 9 -4 15 17 11
20 11 13 -1z m-2634 -77 c11 -15 11 -16 -1 -5 -21 18 -35 15 -19 -5 12 -14 12
-16 -1 -11 -20 6 -26 38 -7 38 8 0 21 -8 28 -17z m2679 7 c0 -5 -8 -6 -17 -3
-15 6 -16 4 -6 -8 10 -13 10 -16 -2 -16 -8 0 -12 4 -9 8 2 4 -4 12 -13 18 -15
9 -13 10 15 11 17 0 32 -4 32 -10z m-2732 -24 c-1 -14 -5 -23 -9 -20 -7 4 0
44 7 44 2 0 3 -11 2 -24z m2729 -22 c-3 -3 -12 -4 -19 -1 -8 3 -5 6 6 6 11 1
17 -2 13 -5z m-2737 -34 c0 -5 -2 -10 -4 -10 -3 0 -8 5 -11 10 -3 6 -1 10 4
10 6 0 11 -4 11 -10z"/>
<path d="M342 1571 c-11 -7 -10 -10 3 -15 9 -3 21 -4 26 0 5 3 9 0 9 -6 0 -6
5 -8 11 -4 16 9 -10 24 -29 16 -10 -3 -13 -1 -8 6 8 14 6 15 -12 3z"/>
<path d="M231 1552 c-13 -14 -12 -15 7 -10 12 4 22 2 22 -3 0 -5 4 -9 8 -9 5
0 9 7 9 15 0 8 -3 13 -5 10 -3 -3 -10 -1 -16 4 -7 6 -17 3 -25 -7z"/>
<path d="M470 1566 c0 -3 14 -12 30 -21 17 -9 30 -13 30 -11 0 3 -13 12 -30
21 -16 9 -30 13 -30 11z"/>
<path d="M293 1535 c0 -7 6 -11 14 -8 7 3 13 6 13 8 0 2 -6 5 -13 8 -8 3 -14
-1 -14 -8z"/>
<path d="M406 1541 c-4 -6 -2 -11 3 -11 22 0 27 -1 49 -16 13 -8 29 -13 35
-11 12 5 -39 28 -57 26 -5 0 -12 5 -16 11 -5 9 -9 9 -14 1z"/>
<path d="M2416 1534 c-11 -8 -16 -14 -10 -14 13 0 39 18 34 24 -3 2 -14 -2
-24 -10z"/>
<path d="M2465 1510 c-3 -5 -1 -10 4 -10 6 0 11 5 11 10 0 6 -2 10 -4 10 -3 0
-8 -4 -11 -10z"/>
<path d="M2574 1510 c-12 -5 -25 -13 -29 -19 -3 -6 -17 -11 -31 -11 -14 0 -23
-4 -20 -9 8 -12 42 -3 56 14 6 7 20 11 30 8 14 -4 20 0 20 11 0 9 -1 16 -2 15
-2 0 -13 -4 -24 -9z"/>
<path d="M2465 1420 c-42 -15 -53 -26 -22 -21 4 0 7 -4 7 -10 0 -5 5 -7 11 -3
8 4 7 9 -2 15 -10 6 -10 9 -2 9 6 0 15 -5 18 -10 6 -10 54 18 55 33 0 10 -7 8
-65 -13z"/>
</g>
</svg>
